<?xml version="1.0" standalone="no"?>
<!DOCTYPE svg PUBLIC "-//W3C//DTD SVG 20010904//EN"
 "http://www.w3.org/TR/2001/REC-SVG-20010904/DTD/svg10.dtd">
<svg version="1.0" xmlns="http://www.w3.org/2000/svg"
 width="540.000000pt" height="360.000000pt" viewBox="0 0 540.000000 360.000000"
 preserveAspectRatio="xMidYMid meet">

<g transform="translate(0.000000,360.000000) scale(0.100000,-0.100000)"
fill="#000000" stroke="none">
<path d="M0 2999 c0 -596 0 -602 21 -639 12 -21 27 -36 34 -34 6 3 22 0 36 -6
22 -10 21 -10 -8 -6 -64 10 -24 -45 54 -74 74 -28 100 -47 153 -116 100 -127
220 -261 220 -245 0 6 7 8 15 5 14 -6 25 4 103 92 24 27 57 63 73 79 16 17 29
35 29 41 0 15 51 61 78 69 12 3 38 30 57 58 19 29 48 69 65 90 18 20 29 37 25
37 -11 0 -85 -81 -85 -94 0 -15 -62 -76 -77 -76 -6 0 -16 -6 -23 -14 -6 -8
-17 -13 -24 -10 -17 7 -63 -32 -82 -68 -8 -16 -18 -28 -21 -25 -2 3 11 35 31
70 27 48 54 79 103 116 36 28 59 51 50 51 -28 0 -29 20 -2 32 17 7 21 14 14
19 -8 4 -2 12 17 23 16 8 22 15 13 16 -18 0 -98 -49 -118 -73 -7 -9 -18 -17
-23 -17 -6 0 -5 6 2 15 6 8 9 19 5 25 -4 6 1 20 11 31 31 34 6 33 -44 -1 -45
-32 -46 -32 -22 -5 14 15 43 36 65 46 22 10 32 19 22 19 -10 0 -32 -7 -50 -15
l-32 -16 30 25 c17 14 37 26 46 26 10 0 39 22 66 48 37 36 67 54 125 75 79 28
132 34 143 17 3 -6 -5 -10 -19 -10 -27 0 -43 -15 -26 -25 14 -9 81 -10 106 -2
19 7 22 3 28 -35 5 -35 71 -257 92 -313 4 -11 2 -13 -9 -9 -9 3 -24 -3 -34
-13 -11 -11 -25 -17 -31 -15 -9 3 -10 -3 -2 -23 5 -14 10 -32 10 -38 0 -13
-87 191 -99 233 -5 18 -15 26 -37 28 -24 2 -41 -9 -95 -60 -36 -35 -68 -73
-71 -85 l-6 -22 32 24 c32 25 124 60 133 51 10 -10 -9 -26 -32 -26 -41 0 -79
-20 -127 -68 -45 -43 -69 -84 -30 -50 9 9 48 30 86 48 51 23 75 30 95 24 25
-7 25 -7 -10 -14 -40 -7 -42 -9 -111 -90 -30 -36 -51 -72 -57 -100 -14 -60
-13 -70 4 -40 8 14 14 23 15 20 0 -10 -28 -96 -45 -134 l-17 -39 26 17 c31 20
34 7 5 -20 -22 -20 -53 -73 -47 -80 2 -2 15 7 28 19 37 33 70 108 70 159 0 36
7 54 35 92 33 42 110 94 122 82 8 -8 -7 -26 -21 -26 -17 0 -82 -71 -89 -96 -3
-11 -11 -55 -17 -98 -10 -74 -20 -111 -20 -73 0 26 -15 20 -30 -10 -8 -16 -27
-46 -42 -68 -21 -30 -29 -56 -32 -105 -9 -111 -16 -147 -37 -195 -30 -69 -30
-168 0 -218 23 -37 23 -41 11 -107 -8 -40 -10 -93 -7 -127 6 -57 6 -57 -9 -29
-9 15 -16 51 -16 79 1 38 -2 47 -11 38 -25 -25 5 -151 36 -151 8 0 37 -61 37
-77 0 -19 -80 106 -90 142 -15 48 -15 119 0 143 8 13 9 11 5 -13 l-6 -30 15
25 c20 33 21 64 1 56 -11 -4 -15 1 -15 18 0 13 -5 38 -11 55 -15 42 -28 24
-30 -39 l-1 -45 -11 43 c-7 30 -7 54 1 79 16 52 6 54 -17 4 -14 -32 -17 -51
-10 -79 4 -20 6 -39 3 -43 -2 -4 0 -10 5 -13 5 -3 8 -19 7 -36 -1 -16 0 -31 4
-32 3 -2 0 -30 -6 -63 -7 -33 -12 -54 -13 -47 -1 6 -6 12 -11 12 -7 0 -7 -7 0
-21 6 -11 9 -25 6 -32 -2 -7 -5 -5 -5 4 -1 9 -7 22 -15 28 -11 9 -15 5 -20
-20 -3 -16 -10 -28 -15 -25 -8 5 -18 -24 -28 -79 -2 -11 -5 -49 -7 -85 -4 -66
-30 -150 -47 -150 -5 0 0 18 11 40 13 26 20 59 20 96 0 32 5 86 11 120 7 42 8
73 1 91 l-10 28 -12 -30 c-7 -16 -13 -35 -14 -42 -1 -7 -5 -15 -8 -18 -3 -3
-3 -22 -1 -43 4 -35 -8 -110 -28 -176 -11 -37 -70 -129 -77 -121 -3 3 7 28 22
56 27 49 50 155 36 164 -4 3 -10 -4 -13 -15 -7 -27 -27 -26 -27 2 0 20 -1 20
-19 4 -20 -19 -53 -127 -49 -167 2 -25 -35 -89 -52 -89 -10 0 -54 -69 -48 -75
3 -3 15 6 28 20 30 31 56 35 40 5 -6 -11 -15 -18 -20 -15 -4 3 -25 -17 -45
-45 -20 -27 -38 -50 -40 -50 -7 0 9 87 21 111 7 14 29 45 49 69 32 39 36 48
33 94 -3 47 -5 51 -30 54 -14 2 -59 -8 -100 -21 -40 -14 -101 -33 -135 -42
l-63 -18 0 -278 0 -279 78 0 77 0 38 71 c21 39 40 69 43 66 6 -5 -28 -71 -39
-75 -4 -2 -7 -17 -7 -33 l0 -29 2138 2 2137 3 -3 29 c-2 16 -15 57 -29 90 -48
116 -72 176 -68 176 6 0 37 -52 40 -68 2 -9 22 -59 44 -110 23 -51 41 -100 41
-108 0 -12 64 -14 455 -14 l455 0 0 368 0 367 -68 -72 c-37 -39 -80 -79 -95
-89 -16 -10 14 26 67 80 l96 97 0 160 c0 87 -3 159 -7 159 -4 0 -66 -60 -138
-133 -71 -73 -155 -152 -185 -174 -62 -47 -330 -174 -402 -192 -26 -6 -65 -11
-87 -11 -50 0 -50 -3 -15 -111 27 -85 27 -117 -2 -53 -9 23 -18 33 -21 26 -3
-8 -1 -24 5 -35 6 -12 14 -35 18 -52 8 -37 15 -279 7 -271 -10 10 -60 139 -68
176 -4 19 -15 46 -25 60 -10 14 -21 35 -24 48 -4 12 -12 22 -17 22 -6 0 -7 5
-4 11 4 5 -15 34 -42 64 -67 73 -68 75 -103 145 -38 75 -24 71 24 -8 24 -39
53 -69 94 -97 44 -29 63 -50 76 -83 25 -59 33 -45 12 22 -19 60 -43 94 -121
173 -52 53 -89 116 -99 168 l-6 30 13 -30 c7 -16 21 -48 31 -71 10 -22 31 -49
47 -58 16 -10 39 -27 51 -39 18 -19 17 -14 -6 28 -15 28 -41 62 -57 77 -16 15
-29 30 -29 34 0 11 45 -8 68 -29 24 -22 28 -17 12 14 -8 14 -7 19 1 19 7 0 6
8 -5 22 -34 49 -40 62 -22 55 22 -9 20 5 -3 25 -10 8 -27 38 -36 64 -21 55
-37 77 -80 107 l-30 22 18 -27 c23 -37 22 -56 -3 -27 -10 13 -19 18 -20 12 0
-31 -26 -3 -45 49 -11 32 -40 84 -65 115 -25 32 -44 63 -42 70 2 7 -2 13 -9
13 -8 0 -8 4 -2 12 5 7 11 33 12 56 3 63 28 119 56 126 12 3 22 12 21 20 0 8
15 25 34 38 20 13 38 36 43 54 5 17 19 44 32 60 l23 29 36 -18 c40 -19 91 -23
81 -7 -3 5 -16 10 -28 10 -13 0 -39 9 -60 19 -24 12 -37 15 -38 7 0 -6 -4 -1
-9 12 -5 12 -17 22 -27 22 -99 1 -182 9 -200 18 -12 7 -46 12 -75 13 -35 0
-46 3 -34 8 18 7 18 8 3 14 -22 8 -22 33 1 47 16 10 16 10 0 20 -23 14 -23 28
-1 32 13 2 9 9 -17 25 -33 22 -34 23 -10 23 14 0 50 -7 80 -15 30 -8 61 -15
68 -15 23 0 12 15 -18 27 -20 7 -28 16 -24 26 4 11 -7 16 -44 21 -28 3 -55 13
-62 21 -9 11 -10 15 -1 15 7 0 9 5 5 11 -4 8 -29 10 -73 6 -72 -6 -153 -41
-183 -80 -10 -12 -18 -17 -18 -11 0 6 13 25 30 44 16 18 27 37 24 41 -3 5 -2
14 2 20 4 7 9 8 13 1 4 -6 19 -3 41 9 l35 20 -40 -6 c-22 -4 -44 -10 -50 -14
-17 -13 -55 -20 -55 -10 0 5 -11 14 -25 19 -14 5 -25 14 -25 20 0 5 11 12 25
16 34 8 31 21 -9 38 -47 20 -51 32 -20 61 26 24 28 24 46 9 10 -10 21 -14 24
-11 4 3 -14 19 -40 34 -30 18 -46 35 -46 48 0 11 -3 30 -6 43 -5 18 -2 22 17
22 51 0 66 -14 138 -121 41 -61 83 -116 93 -123 10 -7 15 -16 10 -21 -4 -4 3
-5 16 -2 12 3 22 1 22 -4 0 -5 10 -9 23 -9 12 0 56 -21 97 -45 41 -25 80 -45
86 -45 32 0 171 -146 207 -216 10 -19 29 -36 48 -43 42 -14 49 -7 9 9 -16 7
-27 16 -25 21 3 4 -4 13 -15 19 -20 11 -20 12 14 52 20 22 40 56 46 74 14 40
19 41 48 11 23 -24 30 -43 12 -32 -5 3 -10 2 -10 -4 0 -5 9 -13 20 -16 11 -4
18 -10 15 -15 -3 -5 -1 -11 5 -15 16 -10 12 -25 -7 -25 -12 0 -7 -7 15 -20 38
-24 42 -39 7 -32 -35 6 -23 -24 13 -33 14 -3 52 -28 85 -56 57 -48 65 -60 26
-39 -24 13 -24 7 -1 -28 l17 -27 -32 23 c-35 25 -43 19 -18 -14 18 -24 19 -41
1 -41 -8 0 -12 6 -9 13 2 6 0 15 -6 19 -7 4 -8 -1 -4 -12 6 -16 5 -17 -13 -3
-14 11 -13 6 6 -20 32 -43 50 -84 50 -112 0 -18 -2 -19 -17 -7 -12 9 -11 5 3
-11 32 -38 41 -58 16 -36 -12 11 -25 16 -29 13 -3 -4 -15 1 -26 10 -20 18 -20
18 -2 -17 l17 -35 -31 29 c-17 16 -34 26 -38 23 -3 -4 -1 -7 5 -7 15 0 61 -72
79 -125 8 -23 23 -52 34 -64 25 -27 10 -28 -19 -1 -26 24 -27 15 -8 -37 20
-54 27 -101 16 -108 -6 -3 -10 1 -10 10 0 9 -11 27 -25 41 -14 14 -25 29 -25
33 0 20 -43 61 -63 59 -12 0 -35 3 -51 7 -35 10 -29 -4 16 -37 26 -18 30 -19
25 -5 -11 28 6 19 50 -26 49 -50 51 -56 57 -214 2 -67 8 -128 12 -135 4 -7 -5
-2 -21 12 -24 22 -26 22 -17 4 6 -11 16 -50 22 -87 l12 -67 52 0 c61 0 127 19
205 59 32 16 93 44 136 62 96 40 164 94 333 268 l132 136 0 1247 0 1248 -2700
0 -2700 0 0 -601z m1883 494 c-13 -2 -33 -2 -45 0 -13 2 -3 4 22 4 25 0 35 -2
23 -4z m-278 -38 c55 -14 111 -30 126 -36 23 -9 144 -21 137 -13 -2 1 -17 10
-33 19 l-30 17 46 -5 c30 -3 70 -18 110 -42 64 -38 139 -102 139 -117 0 -5
-17 9 -38 32 -22 22 -44 40 -51 40 -13 0 -9 -37 9 -69 6 -12 7 -21 3 -21 -4 0
8 -14 25 -31 33 -32 37 -55 5 -27 -26 23 -99 58 -120 58 -17 -1 -17 -2 1 -15
23 -17 17 -19 -18 -5 -41 15 -41 -8 0 -25 52 -22 37 -28 -20 -9 -26 9 -49 14
-52 11 -3 -3 11 -28 31 -56 38 -52 59 -71 29 -26 -15 23 -15 25 0 19 9 -3 16
-10 16 -15 0 -5 19 -28 43 -51 23 -23 36 -38 28 -33 -11 6 -13 4 -7 -10 7 -18
6 -18 -14 0 -12 11 -20 13 -20 6 0 -7 -4 -9 -10 -6 -5 3 -10 1 -10 -5 0 -7 -6
-8 -19 0 -26 13 -34 13 -25 -2 5 -8 2 -9 -12 -4 -29 12 -64 14 -58 5 9 -15 -8
-10 -28 8 -17 15 -18 15 -18 -8 0 -13 -4 -19 -8 -14 -10 15 -51 16 -92 3 -38
-12 -110 -75 -110 -96 0 -7 -7 -23 -16 -37 -14 -22 -27 -124 -24 -202 2 -65
-36 -31 -42 37 -2 25 -7 51 -12 58 -4 6 -2 12 3 12 6 0 11 7 11 15 0 8 -5 15
-11 15 -8 0 -7 5 1 15 7 9 14 26 14 38 1 12 5 28 9 35 5 6 5 17 2 22 -3 6 -1
10 6 10 7 0 10 3 6 6 -3 4 1 13 9 21 8 9 13 21 10 28 -2 7 5 15 16 18 11 3 17
10 13 16 -3 6 0 11 8 11 8 0 20 7 27 15 7 8 23 15 36 15 13 0 34 12 47 26 21
22 26 24 50 13 15 -7 30 -9 34 -6 9 10 -27 47 -46 48 -9 1 -5 4 9 8 l25 7 -33
18 c-19 10 -40 15 -48 12 -8 -3 -14 1 -14 10 0 8 5 12 10 9 6 -3 10 -1 10 6 0
10 3 10 12 1 7 -7 22 -12 34 -12 12 0 27 -7 34 -15 6 -8 17 -13 22 -12 6 1 23
-16 39 -38 15 -22 31 -39 36 -38 4 1 14 -3 21 -9 8 -7 12 -7 12 1 0 6 -7 14
-15 17 -8 4 -13 9 -10 13 2 4 -5 22 -16 40 -16 26 -25 32 -47 30 -17 -2 -41 6
-59 19 -25 18 -42 22 -79 18 -97 -9 -279 -127 -310 -203 -15 -35 -19 -133 -6
-133 4 0 14 6 22 13 8 6 7 3 -2 -8 -15 -18 -16 -26 -4 -65 11 -37 17 -44 35
-42 11 2 29 -2 38 -7 15 -9 13 -10 -10 -7 -17 3 -30 0 -33 -7 -2 -7 7 -46 21
-86 43 -128 26 -102 -26 39 -60 161 -81 246 -73 291 l5 34 -31 -35 c-81 -91
-152 -238 -162 -335 -2 -21 -10 -31 -28 -36 -25 -7 -25 -7 8 -19 49 -18 40
-34 -15 -26 -32 4 -63 1 -93 -9 -25 -8 -62 -17 -83 -20 -24 -4 -35 -10 -31
-17 5 -7 2 -8 -5 -4 -8 5 -27 -8 -51 -34 -21 -23 -43 -39 -49 -36 -5 4 -14 -2
-20 -11 -6 -10 -11 -14 -11 -9 0 5 18 35 40 68 38 57 49 88 33 88 -5 0 -28
-11 -53 -25 -41 -22 -42 -22 -15 -2 39 30 67 57 85 85 8 13 22 24 31 25 8 2
28 13 43 25 l29 22 -29 0 c-39 0 -18 18 27 23 19 2 44 9 55 15 24 14 0 16 -27
2 -13 -8 -19 -7 -19 0 0 6 -4 9 -9 6 -5 -4 -8 1 -7 9 3 21 31 39 94 60 70 23
59 31 -19 14 -52 -12 -67 -20 -102 -59 l-40 -45 24 45 c38 70 88 93 206 92 78
0 94 2 89 14 -3 8 -1 14 4 14 5 0 28 28 51 63 23 34 48 66 56 70 21 13 16 29
-6 17 -14 -7 -22 -7 -27 1 -4 8 -26 9 -63 6 l-56 -6 45 19 c25 10 59 19 75 20
29 1 29 2 -10 15 l-40 13 45 1 c25 1 52 6 60 12 11 8 6 9 -20 5 -19 -2 -44 -1
-55 4 -16 7 -11 9 21 9 23 1 56 4 75 8 l33 6 -27 -29 c-49 -52 -24 -52 48 1
41 31 79 50 71 36 -11 -17 4 -13 71 22 l62 32 -47 18 c-58 23 -74 30 -137 58
-27 13 -57 22 -65 20 -49 -8 -70 -7 -61 2 17 17 209 9 232 -9 24 -19 58 -24
52 -8 -3 8 -9 14 -15 14 -5 0 -6 5 -2 12 4 7 3 8 -4 4 -6 -4 -20 1 -32 11 -11
10 -30 21 -43 24 -13 3 2 6 34 7 35 1 63 -4 75 -13 11 -8 30 -14 44 -14 24 1
24 1 -5 12 -16 7 -44 20 -62 30 -18 9 -50 17 -72 17 -22 0 -43 5 -46 10 -11
18 68 11 170 -15z m135 15 c13 -8 13 -10 -2 -10 -9 0 -20 5 -23 10 -8 13 5 13
25 0z m51 -38 c-7 -2 -18 1 -23 6 -8 8 -4 9 13 5 13 -4 18 -8 10 -11z m-354 2
c-3 -3 -12 -4 -19 -1 -8 3 -5 6 6 6 11 1 17 -2 13 -5z m-74 -183 c10 -11 8
-12 -9 -7 -46 14 -104 12 -170 -5 -38 -10 -80 -18 -94 -18 -14 1 2 7 35 14 33
8 71 18 85 24 33 14 137 8 153 -8z m257 -55 c0 -1 -30 -18 -66 -36 -36 -19
-98 -63 -137 -99 -46 -43 -63 -55 -49 -34 28 40 132 119 197 149 53 25 55 26
55 20z m-486 -51 c-10 -8 -23 -15 -28 -15 -6 0 -1 7 10 15 10 8 23 15 28 15 6
0 1 -7 -10 -15z m3006 -19 c0 -14 -81 -48 -122 -51 -53 -3 -55 12 -2 18 16 2
39 9 50 15 12 6 24 9 27 6 3 -3 14 -1 24 5 20 12 23 13 23 7z m-2122 -11 c-3
-3 8 -20 26 -37 29 -29 29 -32 11 -38 -12 -5 -25 -3 -33 4 -22 21 -25 76 -5
76 4 0 4 -2 1 -5z m-758 -46 c0 -5 -9 -9 -21 -9 -11 0 -18 -4 -15 -8 3 -5 -48
-8 -112 -8 -64 1 -130 -3 -147 -7 l-30 -8 30 20 c23 15 58 22 155 28 129 9
140 8 140 -8z m830 -19 c6 -11 8 -20 6 -20 -3 0 -10 9 -16 20 -6 11 -8 20 -6
20 3 0 10 -9 16 -20z m-1048 -31 c-4 -3 -25 -9 -47 -12 l-40 -5 30 13 c30 13
71 16 57 4z m165 5 c-3 -3 -12 -4 -19 -1 -8 3 -5 6 6 6 11 1 17 -2 13 -5z
m-82 -30 c-37 -20 -95 -35 -95 -24 0 5 14 12 31 15 23 5 28 9 18 16 -9 6 1 9
31 9 l45 0 -30 -16z m122 -71 c-24 -38 -49 -83 -57 -101 -7 -18 -15 -31 -17
-28 -6 6 52 131 77 166 42 59 39 29 -3 -37z m-410 -69 c-3 -3 -12 -4 -19 -1
-8 3 -5 6 6 6 11 1 17 -2 13 -5z m493 -13 c0 -5 -8 -12 -19 -16 -20 -6 -60
-45 -45 -45 5 0 18 7 28 15 11 8 27 15 35 15 14 -1 13 -3 -1 -14 -24 -17 -23
-23 3 -22 38 2 31 -19 -8 -22 -20 -1 -42 -10 -50 -20 -13 -16 -14 -15 -10 6 6
28 -7 28 -27 0 -9 -12 -16 -18 -16 -12 0 6 8 19 18 30 9 11 18 26 20 34 3 17
48 60 63 60 5 0 9 -4 9 -9z m2738 -4 c-7 -7 -26 -12 -43 -11 -37 2 -37 2 -30
14 3 6 24 10 46 10 33 0 38 -2 27 -13z m-2635 -4 c-7 -2 -21 -2 -30 0 -10 3
-4 5 12 5 17 0 24 -2 18 -5z m2737 -11 c0 -9 -141 -44 -148 -37 -11 11 49 29
141 44 4 0 7 -3 7 -7z m50 4 c0 -2 -9 -6 -20 -9 -11 -3 -18 -1 -14 4 5 9 34
13 34 5z m44 -29 c-11 -6 -25 -17 -32 -24 -7 -7 -19 -13 -27 -13 -24 0 -115
-33 -115 -42 0 -4 -26 -8 -57 -7 -59 1 -60 2 -9 14 20 4 26 9 17 14 -8 5 9 14
46 26 32 9 83 25 113 35 58 18 98 16 64 -3z m-2323 -4 c13 -16 12 -17 -3 -4
-17 13 -22 21 -14 21 2 0 10 -8 17 -17z m981 -24 c28 -11 66 -19 82 -19 68 4
71 3 71 -38 -1 -43 17 -54 118 -72 61 -12 91 -26 82 -39 -4 -7 59 -53 129 -95
33 -20 78 -63 93 -90 7 -12 33 -19 102 -27 51 -6 98 -8 104 -5 7 2 1 5 -12 5
-47 2 -132 68 -135 105 -1 5 -8 12 -16 15 -28 11 -100 74 -100 88 0 7 9 13 20
13 27 0 25 8 -7 43 -16 17 -23 27 -16 23 6 -3 14 -2 18 4 3 5 1 10 -4 10 -6 0
-11 4 -11 9 0 5 25 -4 56 -20 30 -16 62 -29 69 -29 8 0 29 -14 47 -31 19 -18
26 -28 16 -25 -10 3 -18 2 -18 -2 0 -9 77 -63 94 -66 32 -5 93 -57 140 -119
16 -21 42 -47 60 -58 l31 -19 -32 0 c-46 0 -84 -16 -77 -34 3 -8 0 -17 -7 -22
-9 -5 -10 -2 -6 9 10 25 -8 20 -22 -5 -11 -22 -11 -22 -8 5 3 20 -1 31 -14 38
-12 6 -19 6 -19 0 0 -14 -52 -3 -70 15 -12 12 -9 14 30 14 25 -1 56 -7 70 -15
31 -17 44 -19 34 -3 -4 6 -3 8 4 4 6 -3 13 -2 17 4 3 5 2 10 -2 10 -5 0 -17
18 -27 41 -19 43 -31 44 -31 1 0 -31 -4 -31 -165 -19 -47 3 -71 3 -55 -1 23
-5 31 -13 33 -34 2 -15 11 -29 20 -31 9 -3 -5 -5 -31 -6 -43 -1 -51 3 -80 36
-18 20 -31 41 -29 46 1 4 -2 6 -8 2 -6 -4 -32 0 -58 9 -112 37 -383 38 -447 3
-47 -26 -65 -43 -65 -61 0 -9 -5 -16 -10 -16 -7 0 -7 -6 0 -20 9 -16 8 -20 -5
-20 -10 0 -13 5 -9 12 5 8 0 9 -14 6 -12 -4 -22 -2 -22 3 0 5 5 9 10 9 6 0 10
14 10 31 0 26 -3 29 -20 24 -11 -4 -20 -2 -20 4 0 6 5 11 12 11 6 0 3 7 -8 15
-20 15 -38 20 -31 8 3 -5 -8 -7 -24 -7 -47 2 -51 3 -44 15 4 5 -1 20 -12 31
-17 21 -17 21 0 11 39 -21 100 16 65 39 -10 6 -7 10 10 14 24 7 30 24 8 24 -8
0 -18 5 -21 10 -4 6 -1 9 6 8 7 -2 15 6 18 18 4 14 13 20 27 19 17 -1 20 3 16
18 -3 13 -1 18 6 13 7 -4 10 1 9 13 -1 16 -6 19 -23 15 -27 -7 -64 11 -64 31
0 8 9 20 20 28 11 8 17 17 14 20 -4 3 7 1 24 -5 40 -16 51 -4 21 21 -24 20
-24 20 -4 35 26 20 25 20 87 -5z m-1758 -21 c-4 -18 -10 -58 -14 -88 -7 -54
-7 -54 -9 -12 -1 42 17 132 26 132 3 0 1 -15 -3 -32z m2126 12 c8 -5 11 -12 8
-15 -4 -4 -17 0 -30 9 -24 17 -5 23 22 6z m71 1 c-8 -5 -11 -16 -8 -25 8 -21
3 -20 -19 1 -15 16 -15 17 2 24 27 11 42 10 25 0z m-968 -16 c-3 -9 -8 -14
-10 -11 -3 3 -2 9 2 15 9 16 15 13 8 -4z m-52 -18 c-10 -9 -11 -8 -5 6 3 10 9
15 12 12 3 -3 0 -11 -7 -18z m139 18 c0 -2 -10 -10 -22 -16 -21 -11 -22 -11
-9 4 13 16 31 23 31 12z m1700 -51 c-8 -8 -23 -20 -34 -25 -15 -7 -13 -3 7 15
31 29 47 35 27 10z m-2815 -4 c4 -6 -12 -10 -40 -10 -25 0 -60 -7 -76 -16 -17
-8 -33 -13 -36 -11 -6 6 31 27 66 38 38 11 79 11 86 -1z m1379 -31 c-8 -13
-24 -1 -24 18 0 13 3 13 15 3 8 -7 12 -16 9 -21z m-534 6 c37 -14 22 -19 -29
-9 -17 4 -28 10 -25 15 7 11 11 11 54 -6z m1971 -59 c-15 -16 -38 -25 -74 -30
-29 -3 -65 -8 -82 -11 l-30 -6 30 14 c17 8 52 17 78 20 27 4 58 14 70 22 31
22 34 19 8 -9z m-2874 -24 c-10 -10 -17 -23 -18 -28 0 -12 -89 -76 -89 -65 0
5 11 16 25 25 14 9 25 21 25 26 0 12 63 70 69 64 2 -2 -3 -12 -12 -22z m-67
-2 c-8 -5 -22 -10 -30 -10 -13 0 -13 1 0 10 8 5 22 10 30 10 13 0 13 -1 0 -10z
m1110 -30 c-8 -5 -22 -9 -30 -9 -10 0 -8 3 5 9 27 12 43 12 25 0z m1875 -10
c-3 -5 -13 -10 -21 -10 -8 0 -14 -5 -14 -11 0 -6 9 -8 20 -4 11 4 20 2 20 -4
0 -6 8 -7 18 -4 14 6 15 4 5 -9 -7 -8 -11 -17 -8 -20 3 -2 -6 -11 -20 -18 -14
-7 -25 -16 -25 -20 0 -8 -109 6 -118 14 -3 3 7 6 23 6 l28 0 -24 21 c-20 18
-32 20 -79 15 l-55 -6 35 17 c70 32 230 57 215 33z m-1865 -15 c0 -2 -9 -9
-20 -15 -24 -13 -50 -2 -29 11 15 9 49 12 49 4z m-110 -81 c0 -12 -113 -55
-122 -46 -6 6 8 14 34 21 24 6 50 15 58 21 17 11 30 13 30 4z m1990 -24 c0 -5
-7 -7 -15 -4 -8 4 -15 8 -15 10 0 2 7 4 15 4 8 0 15 -4 15 -10z m-20 -15 c43
-2 72 -14 64 -26 -3 -5 0 -9 5 -9 16 0 54 -40 39 -40 -18 -1 -66 -40 -50 -40
7 0 23 5 35 12 20 10 21 10 8 -5 -12 -15 -11 -17 8 -17 11 0 21 -4 21 -10 0
-5 -7 -10 -15 -10 -9 0 -12 -6 -8 -16 3 -10 -10 -5 -38 14 -24 17 -64 36 -89
43 -25 7 -49 15 -53 19 -10 8 21 6 51 -4 26 -9 65 1 57 15 -4 5 -15 9 -26 9
-10 0 -28 9 -39 20 -11 11 -23 20 -27 20 -19 0 -73 22 -79 32 -5 8 9 8 47 3
30 -5 70 -10 89 -10z m-1532 -34 c3 -8 -1 -12 -9 -9 -7 2 -15 10 -17 17 -3 8
1 12 9 9 7 -2 15 -10 17 -17z m-42 -11 c21 0 17 -20 -8 -42 -16 -14 -31 -18
-51 -14 -20 4 -26 2 -21 -7 4 -6 -2 -3 -14 7 -22 19 -31 43 -12 31 6 -4 24 -3
41 0 22 5 29 11 25 22 -5 11 -2 13 10 9 8 -3 22 -6 30 -6z m1149 -10 c3 -6 -1
-7 -9 -4 -18 7 -21 14 -7 14 6 0 13 -4 16 -10z m-1007 -83 c2 -21 -1 -37 -7
-37 -6 0 -11 8 -11 19 0 17 -10 16 -147 -20 -82 -21 -159 -41 -173 -45 -60
-17 -6 7 90 39 58 19 130 47 160 61 71 33 84 30 88 -17z m-967 2 c19 -13 27
-25 20 -27 -7 -2 -20 3 -29 11 -15 14 -59 28 -132 41 -14 3 5 3 42 2 50 -3 75
-9 99 -27z m721 13 c24 -11 49 -17 57 -14 9 3 11 0 6 -8 -4 -6 -18 -10 -31 -7
-13 2 -21 1 -19 -4 3 -4 -4 -11 -16 -14 -15 -5 -28 -1 -42 14 -20 19 -20 21
-3 21 15 0 16 3 6 15 -16 19 -11 19 42 -3z m1135 12 c-3 -3 -12 -4 -19 -1 -8
3 -5 6 6 6 11 1 17 -2 13 -5z m-2030 -10 c-3 -3 -12 -4 -19 -1 -8 3 -5 6 6 6
11 1 17 -2 13 -5z m-160 -20 c-3 -3 -12 -4 -19 -1 -8 3 -5 6 6 6 11 1 17 -2
13 -5z m2247 0 c16 -6 23 -44 9 -44 -10 1 -53 36 -53 44 0 8 24 8 44 0z
m-2319 -24 c-3 -5 -12 -10 -18 -10 -7 0 -6 4 3 10 19 12 23 12 15 0z m190 -25
c0 -17 13 -32 50 -56 47 -32 83 -82 100 -139 5 -15 -10 -1 -38 37 -61 82 -154
135 -208 118 -18 -6 -18 -8 -3 -38 9 -18 23 -40 32 -49 12 -15 13 -18 1 -18
-23 1 -138 -64 -141 -79 -3 -12 -5 -12 -15 1 -11 12 -1 20 62 53 41 21 75 40
75 42 0 2 -9 21 -20 42 -21 42 -41 55 -74 46 -21 -6 -21 -6 -1 7 12 8 49 13
93 12 39 -1 72 0 72 2 0 1 -4 14 -9 27 -8 21 -7 24 8 20 10 -2 17 -14 16 -28z
m133 1 c42 -22 89 -76 112 -129 30 -67 21 -68 -14 -2 -26 50 -74 102 -122 132
-27 17 -9 16 24 -1z m174 -23 c39 -41 68 -92 68 -119 0 -11 -10 -3 -28 22 -16
21 -37 46 -47 54 -17 14 -18 14 -7 -7 23 -43 11 -47 -23 -8 -39 46 -44 61 -14
45 29 -16 34 -7 14 24 -25 38 -4 32 37 -11z m738 11 c0 -8 -5 -12 -10 -9 -6 3
-17 0 -25 -9 -15 -14 -97 -36 -138 -36 -39 0 3 29 74 49 80 24 99 25 99 5z
m1718 10 c19 -5 22 -13 21 -48 l-2 -41 -10 38 c-7 25 -16 37 -29 37 -10 0 -18
5 -18 10 0 11 6 12 38 4z m-2278 -53 c17 -33 12 -46 -19 -46 -16 0 -27 3 -25
7 2 4 0 9 -6 13 -5 3 -10 1 -10 -4 0 -6 -9 -2 -20 9 -30 30 -24 40 25 40 34 0
47 -5 55 -19z m297 3 c-3 -3 -12 -4 -19 -1 -8 3 -5 6 6 6 11 1 17 -2 13 -5z
m-52 -14 c-27 -12 -43 -12 -25 0 8 5 22 9 30 9 10 0 8 -3 -5 -9z m447 -42
c-21 -4 -44 -5 -52 -3 -8 2 -28 6 -43 9 -30 7 -28 23 5 35 13 5 40 0 73 -13
l53 -21 -36 -7z m95 -35 c4 -10 11 -21 17 -25 18 -12 -7 -28 -32 -22 -22 6
-31 24 -11 24 23 0 1 25 -27 31 -27 6 -27 7 9 8 27 1 39 -4 44 -16z m243 -8
c8 -9 8 -15 2 -15 -18 0 -42 12 -42 21 0 14 26 10 40 -6z m-1840 -19 c0 -16
-18 -31 -27 -22 -8 8 5 36 17 36 5 0 10 -6 10 -14z m519 -26 c11 -24 11 -24
-3 -6 -9 11 -16 24 -16 30 0 12 5 7 19 -24z m-879 -15 c-7 -9 -15 -13 -17 -11
-7 7 7 26 19 26 6 0 6 -6 -2 -15z m1140 -9 c0 -3 -4 -8 -10 -11 -5 -3 -10 -1
-10 4 0 6 5 11 10 11 6 0 10 -2 10 -4z m-700 -14 c0 -10 -91 -75 -97 -69 -3 4
85 76 95 77 1 0 2 -4 2 -8z m1790 -37 c9 -10 9 -15 1 -15 -6 0 -10 -3 -10 -7
3 -20 -2 -23 -17 -8 -16 15 -13 45 4 45 5 0 15 -7 22 -15z m309 -37 c-17 -33
-60 -78 -91 -94 -45 -24 -44 -16 3 16 24 16 55 45 68 65 27 39 38 46 20 13z
m871 -48 c-7 -30 -25 -63 -47 -87 -37 -40 -35 -28 4 23 13 17 29 55 36 83 6
28 13 47 15 41 2 -6 -1 -33 -8 -60z m-3139 37 c-10 -9 -11 -8 -5 6 3 10 9 15
12 12 3 -3 0 -11 -7 -18z m1976 1 c-3 -8 -6 -5 -6 6 -1 11 2 17 5 13 3 -3 4
-12 1 -19z m1217 15 c-5 -5 -12 -12 -16 -18 -4 -6 -8 -2 -8 8 0 9 7 17 17 17
9 0 12 -3 7 -7z m-1131 -130 c-18 -2 -48 -2 -65 0 -18 2 -4 4 32 4 36 0 50 -2
33 -4z m387 -62 c0 -11 -31 -24 -39 -16 -3 3 1 10 9 15 19 12 30 12 30 1z
m160 -31 c13 -9 13 -11 0 -20 -8 -5 -18 -10 -22 -10 -11 0 -20 19 -13 30 8 12
16 12 35 0z m-197 -57 c5 -26 4 -26 -9 -9 -7 10 -11 23 -8 27 8 14 11 11 17
-18z m-2728 -78 c-15 -54 -13 -81 6 -70 5 4 9 1 9 -5 0 -7 6 -8 19 0 28 14 34
-3 10 -28 -11 -12 -17 -22 -13 -22 3 0 -1 -11 -10 -25 -9 -14 -15 -29 -12 -33
3 -4 1 -14 -3 -21 -6 -9 -11 -10 -15 -2 -4 6 -2 11 4 11 6 0 8 5 4 11 -4 8 -9
7 -15 -2 -5 -8 -2 -20 8 -31 8 -9 16 -28 17 -42 0 -13 3 -23 5 -20 2 2 10 -4
17 -14 8 -12 9 -21 2 -29 -6 -7 -12 -30 -15 -50 -5 -39 -22 -69 -24 -42 -8
107 -29 220 -41 213 -11 -7 -10 -57 2 -88 5 -14 6 -26 1 -26 -10 0 -31 77 -31
112 0 13 10 43 21 68 12 25 25 75 29 112 4 36 14 73 21 81 21 23 22 4 4 -58z
m665 3 c0 -6 -3 -8 -7 -4 -4 3 -34 -19 -67 -51 l-60 -58 59 65 c56 62 75 74
75 48z m-544 -54 c-4 -18 -11 -34 -15 -34 -5 0 -5 17 0 38 5 20 9 42 10 47 0
6 3 4 6 -3 3 -7 2 -29 -1 -48z m3725 39 c-15 -28 -40 -59 -41 -50 0 13 22 51
34 59 16 11 18 10 7 -9z m-821 -84 c19 -12 39 -29 45 -38 12 -20 16 -59 7 -65
-4 -3 -55 -7 -112 -11 -78 -4 -102 -3 -94 5 12 12 14 13 87 25 27 4 51 14 54
21 7 19 -15 44 -38 44 -21 0 -22 1 -13 24 8 21 22 20 64 -5z m-2802 -87 c0
-52 18 -129 34 -149 14 -18 0 -16 -18 1 -19 20 -36 112 -28 159 8 51 13 47 12
-11z m2617 -32 c-3 -5 -12 -10 -18 -10 -7 0 -6 4 3 10 19 12 23 12 15 0z m-80
-30 c-3 -5 -12 -10 -18 -10 -7 0 -6 4 3 10 19 12 23 12 15 0z m318 -11 c3 -11
3 -27 0 -35 -6 -15 -23 -19 -23 -5 0 23 -142 -7 -255 -54 -20 -8 -20 -8 -1 13
10 12 23 19 29 15 5 -3 15 1 22 10 14 20 105 56 165 67 25 4 48 8 51 9 4 0 9
-8 12 -20z m-876 5 c-3 -3 -12 -4 -19 -1 -8 3 -5 6 6 6 11 1 17 -2 13 -5z
m448 -4 c-3 -5 -11 -10 -16 -10 -6 0 -7 5 -4 10 3 6 11 10 16 10 6 0 7 -4 4
-10z m1026 -12 c11 -21 11 -22 -4 -9 -10 7 -17 17 -17 22 0 15 9 10 21 -13z
m-2045 -25 c-7 -7 -26 7 -26 19 0 6 6 6 15 -2 9 -7 13 -15 11 -17z m619 -3
c-3 -5 -21 -9 -38 -9 l-32 2 35 7 c19 4 36 8 38 9 2 0 0 -3 -3 -9z m-30 -45
c-17 -7 -46 -10 -65 -7 l-35 6 30 5 c17 4 46 7 65 7 l35 2 -30 -13z m550 5
c-3 -5 -13 -10 -21 -10 -8 0 -12 5 -9 10 3 6 13 10 21 10 8 0 12 -4 9 -10z
m227 0 c6 0 4 -8 -5 -18 -10 -10 -14 -22 -10 -27 5 -4 3 -5 -3 -2 -7 4 -14 1
-17 -7 -4 -10 -20 -13 -54 -11 -27 1 -58 -4 -70 -11 -14 -9 -24 -10 -28 -4 -9
15 3 30 24 30 10 0 42 13 72 30 30 16 60 28 67 25 8 -3 18 -5 24 -5z m-1604
-45 c-6 -13 -14 -22 -19 -20 -4 3 -10 1 -14 -5 -3 -5 -16 -15 -28 -21 -14 -7
-7 5 18 29 47 47 59 52 43 17z m335 8 c-7 -2 -19 -2 -25 0 -7 3 -2 5 12 5 14
0 19 -2 13 -5z m1033 -60 c-2 -9 -8 -19 -15 -21 -10 -3 -10 0 -2 17 14 25 20
27 17 4z m-1462 -48 c-8 -19 -14 -49 -15 -67 l-1 -33 -8 34 c-9 37 14 116 30
106 5 -3 2 -21 -6 -40z m240 -12 c-4 -10 -11 -47 -14 -83 l-7 -65 -1 63 c-1
35 3 72 8 83 13 24 25 25 14 2z m-892 -22 c2 -17 1 -28 -4 -25 -8 5 -12 54 -4
54 2 0 6 -13 8 -29z m2580 -55 c15 -19 47 -42 72 -51 28 -11 43 -22 40 -30 -3
-7 -1 -16 5 -20 6 -3 11 -11 11 -17 0 -6 -10 -2 -23 10 -34 32 -45 27 -15 -5
29 -32 47 -83 22 -62 -30 24 -22 2 14 -41 40 -47 67 -100 53 -100 -5 0 -14 13
-21 29 -6 16 -23 40 -38 53 l-26 23 18 -29 c10 -16 13 -25 6 -21 -9 6 -12 0
-8 -23 4 -28 3 -29 -19 -21 -23 8 -33 -4 -13 -16 5 -3 15 -16 22 -28 11 -21
10 -21 -7 -7 -17 14 -18 13 -12 -3 5 -14 -2 -11 -29 10 l-37 27 22 -43 c25
-47 22 -83 -4 -61 -8 7 -15 20 -16 29 0 9 -9 34 -19 56 -17 36 -19 38 -19 14
-1 -15 6 -46 14 -69 13 -38 21 -114 8 -82 -2 6 -9 10 -14 6 -5 -3 -9 3 -9 13
0 11 -5 24 -12 31 -7 7 -18 38 -24 70 -7 31 -15 66 -19 77 -3 11 3 4 15 -15
l20 -35 -2 40 c-1 22 -10 52 -20 67 -10 14 -18 31 -18 36 0 6 -5 14 -10 17 -7
4 -9 -3 -5 -22 4 -25 3 -24 -10 7 -9 19 -22 49 -31 65 l-15 30 6 -35 c3 -24 2
-30 -5 -19 -12 20 -20 66 -13 73 9 9 43 -13 43 -28 0 -8 7 -20 17 -27 15 -13
15 -12 4 9 -6 12 -9 22 -5 22 3 0 0 7 -7 17 -13 15 -11 16 15 9 23 -6 27 -4
23 8 -4 9 -1 15 5 13 5 -1 12 6 13 16 2 11 6 21 9 24 3 3 1 14 -5 24 -18 34
24 22 53 -15z m-1762 20 c0 -2 -13 -20 -30 -41 -16 -21 -30 -35 -30 -33 0 11
30 63 30 53 0 -5 5 -2 11 8 9 15 19 23 19 13z m-641 -39 c0 -21 -1 -21 -9 -2
-12 28 -12 37 0 30 6 -3 10 -16 9 -28z m2868 -44 c-3 -10 -5 -4 -5 12 0 17 2
24 5 18 2 -7 2 -21 0 -30z m-2114 -41 c-4 -33 -9 -49 -14 -41 -4 7 -5 27 -2
44 13 76 23 74 16 -3z m-25 -8 c-4 -3 -12 5 -18 18 -12 22 -12 22 6 6 10 -10
15 -20 12 -24z m1116 -39 c-4 -8 -11 -15 -17 -15 -6 0 -7 -3 -4 -6 4 -4 18 1
33 11 26 17 27 17 19 -1 -5 -11 -11 -44 -15 -74 -6 -54 -7 -54 -18 -27 -7 16
-12 36 -12 45 0 11 -8 6 -21 -15 -37 -58 -36 -34 2 55 10 23 23 42 28 42 6 0
8 -7 5 -15z m-2267 -17 c-3 -8 -6 -5 -6 6 -1 11 2 17 5 13 3 -3 4 -12 1 -19z
m2632 -38 c1 -13 0 -13 -9 0 -5 8 -9 26 -9 40 l1 25 8 -25 c4 -14 8 -32 9 -40z
m-1447 28 c-7 -7 -12 -8 -12 -2 0 14 12 26 19 19 2 -3 -1 -11 -7 -17z m1805 0
c-3 -8 -6 -5 -6 6 -1 11 2 17 5 13 3 -3 4 -12 1 -19z m-520 -50 c-2 -13 -4 -3
-4 22 0 25 2 35 4 23 2 -13 2 -33 0 -45z m227 46 c3 -8 2 -12 -4 -9 -6 3 -10
10 -10 16 0 14 7 11 14 -7z m-2594 -63 c-1 -13 -29 45 -29 59 0 8 6 0 14 -19
8 -18 15 -36 15 -40z m-86 33 c3 -8 2 -12 -4 -9 -6 3 -10 10 -10 16 0 14 7 11
14 -7z m2166 7 c0 -5 -7 -12 -16 -15 -14 -5 -15 -4 -4 9 14 17 20 19 20 6z
m160 -58 c-10 -16 -11 -15 -6 7 3 14 6 34 7 45 1 13 3 11 6 -7 2 -15 -1 -35
-7 -45z m297 -5 c-3 -8 -6 -5 -6 6 -1 11 2 17 5 13 3 -3 4 -12 1 -19z m-2433
-23 c5 -22 4 -26 -4 -15 -5 8 -10 24 -10 34 0 26 6 18 14 -19z m2404 -11 c-3
-14 -5 -12 -10 9 -3 19 -2 25 4 19 6 -6 8 -18 6 -28z m188 -221 c-2 -2 -17 34
-34 79 -44 122 -51 146 -44 153 4 4 24 -46 44 -111 21 -65 36 -119 34 -121z
m-3639 205 c-3 -8 -6 -5 -6 6 -1 11 2 17 5 13 3 -3 4 -12 1 -19z m3394 -14 c5
-15 8 -29 5 -31 -2 -2 -8 10 -14 26 -13 38 -5 41 9 5z m69 -13 c0 -11 3 -28 6
-38 4 -14 4 -15 -4 -3 -17 27 -24 60 -13 60 6 0 11 -9 11 -19z m-3508 -53 c-7
-7 -12 -8 -12 -2 0 6 3 14 7 17 3 4 9 5 12 2 2 -3 -1 -11 -7 -17z m1141 -82
c3 -30 1 -43 -4 -35 -5 8 -8 34 -8 59 1 53 6 44 12 -24z m2492 -2 c4 -25 2
-23 -14 11 -23 48 -27 67 -7 39 8 -11 17 -34 21 -50z m255 -45 c15 -28 5 -23
-15 7 -9 15 -12 23 -6 20 6 -4 16 -16 21 -27z m42 9 c8 -13 18 -34 22 -48 4
-15 -3 -7 -18 19 -14 23 -26 45 -26 47 0 10 9 2 22 -18z m-35 -165 c6 -24 8
-43 4 -43 -4 0 -12 19 -18 43 -7 23 -15 51 -19 62 l-6 20 14 -20 c8 -11 20
-39 25 -62z m130 33 c17 -8 38 -30 47 -47 25 -50 19 -57 -14 -19 -16 19 -30
38 -30 41 0 3 -10 11 -23 18 -13 7 -29 22 -36 34 -13 21 -13 21 5 6 10 -9 33
-24 51 -33z m213 -231 c0 -5 -5 -3 -10 5 -5 8 -10 20 -10 25 0 6 5 3 10 -5 5
-8 10 -19 10 -25z"/>
<path d="M1513 3413 c9 -2 23 -2 30 0 6 3 -1 5 -18 5 -16 0 -22 -2 -12 -5z"/>
<path d="M1684 3403 c10 -11 37 -12 30 -2 -3 5 -12 9 -21 9 -9 0 -13 -3 -9 -7z"/>
<path d="M1780 3382 c0 -15 20 -27 70 -42 25 -7 50 -16 55 -19 21 -11 47 -11
43 1 -7 20 -52 48 -83 52 -17 2 -42 7 -57 11 -17 4 -28 3 -28 -3z"/>
<path d="M1975 3360 c3 -5 11 -10 16 -10 6 0 7 5 4 10 -3 6 -11 10 -16 10 -6
0 -7 -4 -4 -10z"/>
<path d="M1950 3357 c0 -18 25 -57 37 -57 10 0 11 5 4 18 -11 20 -41 48 -41
39z"/>
<path d="M1925 3292 c12 -12 87 -34 94 -27 2 3 -1 5 -8 5 -7 0 -10 4 -7 8 2 4
-3 8 -12 9 -9 1 -30 5 -47 9 -21 4 -27 3 -20 -4z"/>
<path d="M1737 3249 c7 -7 15 -10 18 -7 3 3 -2 9 -12 12 -14 6 -15 5 -6 -5z"/>
<path d="M1780 3256 c0 -2 7 -9 15 -16 9 -7 15 -8 15 -2 0 5 -7 12 -15 16 -8
3 -15 4 -15 2z"/>
<path d="M1395 3176 c-22 -19 -38 -36 -35 -39 3 -3 25 13 50 34 25 21 41 39
35 39 -5 0 -28 -16 -50 -34z"/>
<path d="M1041 2859 c-30 -10 -57 -22 -60 -25 -9 -9 71 7 93 18 11 6 21 6 25
1 15 -22 39 -21 50 3 10 23 9 24 -22 23 -17 0 -56 -9 -86 -20z"/>
<path d="M1115 2810 c3 -5 8 -10 11 -10 2 0 4 5 4 10 0 6 -5 10 -11 10 -5 0
-7 -4 -4 -10z"/>
<path d="M1055 2759 c-77 -31 -87 -48 -15 -27 8 3 12 3 8 1 -19 -11 -5 -23 26
-23 25 0 35 5 39 20 3 11 0 20 -5 20 -6 0 -5 6 2 15 16 19 6 18 -55 -6z"/>
<path d="M853 2698 c-20 -26 -26 -41 -15 -34 12 7 36 46 29 46 -3 0 -9 -6 -14
-12z"/>
<path d="M1075 2690 c-3 -5 3 -10 14 -10 12 0 21 5 21 10 0 6 -6 10 -14 10 -8
0 -18 -4 -21 -10z"/>
<path d="M904 2676 c-35 -16 -49 -32 -35 -41 6 -3 25 8 43 24 37 34 36 36 -8
17z"/>
<path d="M840 2619 c0 -5 5 -7 10 -4 6 3 10 8 10 11 0 2 -4 4 -10 4 -5 0 -10
-5 -10 -11z"/>
<path d="M780 2520 c-8 -5 -12 -12 -9 -15 4 -3 12 1 19 10 14 17 11 19 -10 5z"/>
<path d="M3500 2625 c0 -6 28 -18 70 -29 23 -7 23 -6 -5 13 -28 19 -65 28 -65
16z"/>
<path d="M3026 2586 c-7 -21 -4 -36 8 -55 9 -14 24 -41 33 -58 l17 -33 88 0
c86 0 88 1 78 20 -12 23 -25 27 -16 5 6 -17 -9 -20 -20 -4 -5 8 -9 8 -14 -1
-5 -8 -14 -3 -28 15 -17 21 -28 26 -54 23 -27 -2 -35 1 -46 25 -7 15 -17 27
-22 27 -5 0 -10 15 -12 33 l-4 32 -8 -29z"/>
<path d="M2993 2457 c3 -9 1 -18 -6 -21 -7 -2 0 -5 16 -5 32 -1 35 9 6 28 -19
11 -21 11 -16 -2z"/>
<path d="M2922 2419 c-13 -5 -28 -7 -33 -3 -5 3 -9 0 -9 -5 0 -6 6 -11 13 -10
19 1 84 27 67 28 -8 0 -26 -4 -38 -10z"/>
<path d="M2848 2393 c7 -3 16 -2 19 1 4 3 -2 6 -13 5 -11 0 -14 -3 -6 -6z"/>
<path d="M4108 2513 c6 -2 18 -2 25 0 6 3 1 5 -13 5 -14 0 -19 -2 -12 -5z"/>
<path d="M960 2511 c-37 -12 -88 -39 -96 -53 -5 -8 -2 -9 10 -5 9 4 45 9 79
13 97 9 109 12 131 34 l20 20 -59 -1 c-33 0 -71 -4 -85 -8z m23 -28 c-7 -2
-19 -2 -25 0 -7 3 -2 5 12 5 14 0 19 -2 13 -5z"/>
<path d="M945 2430 c-4 -7 3 -8 22 -4 38 9 42 14 10 14 -14 0 -29 -5 -32 -10z"/>
<path d="M1010 2394 l-45 -12 63 -1 c49 -1 62 2 62 14 0 17 -18 17 -80 -1z"/>
<path d="M778 2374 c-16 -8 -28 -19 -28 -25 0 -5 14 0 30 13 43 31 42 36 -2
12z"/>
<path d="M0 1469 l0 -896 47 14 c27 8 72 24 102 36 30 11 82 28 114 37 l60 17
17 84 c11 51 33 116 58 165 23 45 38 84 35 88 -9 8 -63 -44 -63 -61 0 -7 -6
-13 -14 -13 -8 0 -24 -12 -36 -28 l-21 -27 6 25 c10 37 54 97 74 103 13 3 20
18 25 53 11 81 32 170 37 156 3 -8 12 3 22 24 18 36 18 37 0 23 -17 -13 -17
-13 -1 6 16 19 15 24 -3 90 -16 57 -19 90 -14 178 5 110 17 149 57 194 16 17
18 25 9 42 -7 12 -16 21 -21 21 -6 0 -10 5 -10 11 0 5 5 7 10 4 20 -12 9 15
-19 47 -15 18 -36 48 -46 67 -18 36 -97 134 -173 214 -45 48 -54 54 -141 86
-37 14 -49 26 -77 76 l-34 60 0 -896z m100 -613 c0 -3 -4 -8 -10 -11 -5 -3
-10 -1 -10 4 0 6 5 11 10 11 6 0 10 -2 10 -4z"/>
<path d="M753 2005 c-25 -17 -68 -83 -60 -92 8 -8 52 39 71 76 19 36 18 36
-11 16z"/>
<path d="M783 1820 c-33 -39 -44 -87 -20 -87 7 0 27 29 43 64 35 71 25 81 -23
23z"/>
<path d="M4086 1845 c23 -17 34 -19 34 -4 0 5 -4 7 -10 4 -5 -3 -10 -1 -10 4
0 6 -8 11 -17 11 -15 0 -14 -2 3 -15z"/>
<path d="M3954 1808 c-10 -16 2 -19 29 -9 20 8 31 6 52 -11 14 -11 28 -18 31
-16 8 8 -7 38 -16 33 -5 -3 -11 -1 -14 4 -8 12 -74 12 -82 -1z"/>
<path d="M672 1688 c-49 -102 -50 -117 -6 -68 21 23 39 48 40 55 1 7 5 27 9
44 11 51 -10 36 -43 -31z"/>
<path d="M4286 1603 c-3 -3 14 -19 39 -35 65 -43 113 -47 67 -5 -21 19 -98 48
-106 40z"/>
<path d="M624 1555 c-3 -8 -4 -20 -2 -27 3 -7 7 -1 10 15 6 29 1 36 -8 12z"/>
<path d="M695 1538 l-18 -31 26 19 c28 20 32 29 19 38 -5 3 -17 -9 -27 -26z"/>
<path d="M4245 1560 c-15 -25 5 -191 27 -217 8 -10 6 -13 -5 -13 -23 0 -9 -37
16 -44 12 -3 37 -6 56 -6 52 0 30 -11 -25 -12 -27 0 -43 -3 -36 -5 6 -3 10 -9
7 -13 -7 -12 86 -59 103 -53 6 3 12 0 12 -6 0 -6 7 -11 15 -11 18 0 19 11 3
29 -10 11 -10 13 0 7 18 -10 15 19 -4 35 -8 7 -25 31 -36 53 -11 23 -27 45
-34 49 -8 4 -21 22 -29 40 -13 25 -13 28 -1 14 10 -13 15 -14 18 -6 3 9 16 4
41 -15 30 -23 42 -27 59 -19 20 9 20 10 -12 34 -18 13 -55 46 -84 72 -28 27
-59 55 -68 64 -10 9 -15 20 -12 24 3 5 3 9 0 9 -3 0 -7 -4 -11 -10z m46 -117
c13 -16 12 -17 -3 -4 -17 13 -22 21 -14 21 2 0 10 -8 17 -17z m80 -230 c13
-16 12 -17 -3 -4 -17 13 -22 21 -14 21 2 0 10 -8 17 -17z"/>
<path d="M506 1490 c-9 -22 -16 -49 -16 -60 0 -11 -4 -20 -10 -20 -15 0 -12
-53 3 -74 12 -16 14 -14 26 25 7 24 22 54 33 66 18 19 19 26 8 57 -16 50 -26
52 -44 6z"/>
<path d="M767 1485 c-14 -41 -14 -46 -2 -31 8 11 15 16 15 11 0 -5 4 -5 10 1
5 5 6 22 2 39 -8 30 -8 30 -25 -20z"/>
<path d="M4140 1420 c0 -5 10 -15 23 -21 12 -6 32 -21 45 -32 l22 -20 0 25 c0
19 -8 30 -34 42 -39 18 -56 20 -56 6z"/>
<path d="M4210 1286 c0 -2 7 -9 15 -16 9 -7 15 -8 15 -2 0 5 -7 12 -15 16 -8
3 -15 4 -15 2z"/>
<path d="M4310 1192 c26 -23 55 -41 69 -42 22 0 20 2 -13 25 -20 14 -51 32
-69 41 -29 15 -28 13 13 -24z"/>
<path d="M4270 1191 c0 -10 30 -24 37 -17 3 2 -5 9 -16 16 -12 6 -21 7 -21 1z"/>
<path d="M465 1128 c-3 -24 -9 -59 -12 -78 l-5 -35 18 24 c12 16 17 40 15 74
-2 65 -7 70 -16 15z"/>
<path d="M581 1151 c-7 -12 -8 -21 -2 -21 5 0 12 6 14 13 3 7 6 6 6 -5 1 -9
-4 -20 -10 -23 -6 -4 -8 -13 -5 -20 2 -7 -1 -18 -7 -24 -7 -7 -7 -11 -1 -11
13 0 34 44 34 68 0 9 -4 23 -9 31 -7 11 -11 9 -20 -8z"/>
<path d="M4420 1166 c0 -3 9 -10 20 -16 11 -6 20 -8 20 -6 0 3 -9 10 -20 16
-11 6 -20 8 -20 6z"/>
<path d="M4265 1150 c3 -5 8 -10 11 -10 2 0 4 5 4 10 0 6 -5 10 -11 10 -5 0
-7 -4 -4 -10z"/>
<path d="M4315 1120 c16 -16 38 -30 49 -30 19 1 17 4 -12 30 -45 41 -76 41
-37 0z"/>
<path d="M4280 1127 c0 -3 15 -23 33 -44 l32 -37 -32 22 c-41 29 -47 28 -26
-5 l17 -28 -27 24 c-15 14 -27 21 -27 17 0 -19 35 -65 57 -75 14 -6 33 -31 44
-56 19 -42 53 -74 67 -61 3 3 0 6 -6 6 -12 0 -52 57 -52 73 0 21 70 -49 80
-79 10 -31 50 -67 50 -46 0 7 -30 60 -73 130 -12 18 9 15 28 -4 9 -9 18 -14
21 -12 7 8 -7 38 -18 38 -5 0 -6 5 -2 12 5 8 2 9 -10 5 -10 -4 -15 -3 -11 3 3
5 -7 15 -22 22 -15 6 -49 32 -75 57 -27 25 -48 42 -48 38z"/>
<path d="M622 1062 c-6 -18 -8 -32 -5 -32 3 0 1 -6 -4 -12 -12 -16 -26 -68
-17 -68 26 0 58 87 45 123 -7 19 -9 18 -19 -11z"/>
<path d="M504 977 c-30 -44 -84 -150 -84 -162 1 -5 8 4 16 20 9 17 34 58 56
92 22 34 38 67 36 72 -1 6 -13 -4 -24 -22z"/>
<path d="M4490 807 c0 -7 7 -22 15 -33 13 -17 14 -16 4 14 -11 33 -19 41 -19
19z"/>
<path d="M4410 798 c0 -2 11 -25 25 -52 27 -54 34 -49 10 7 -12 29 -35 59 -35
45z"/>
<path d="M4532 255 c0 -11 4 -31 8 -45 6 -20 8 -21 8 -5 0 11 -4 31 -8 45 -6
20 -8 21 -8 5z"/>
</g>
</svg>
